<svg width="390" height="844" viewBox="0 0 390 844" fill="none" xmlns="http://www.w3.org/2000/svg" font-family="&#39;Inter&#39;,sans-serif" aria-label="05 Niches">
  <rect width="390" height="844" fill="#F8FAFC"></rect>

  
  <rect width="390" height="64" fill="#FFFFFF"></rect>
  <line x1="0" y1="64" x2="390" y2="64" stroke="#E2E8F0"></line>
  <g transform="translate(24,21) scale(0.18)" stroke="#2563EB" fill="none" stroke-linecap="round">
    <line x1="30" y1="44" x2="30" y2="76" stroke-width="9"></line><line x1="90" y1="44" x2="90" y2="76" stroke-width="9"></line>
    <line x1="40.9" y1="39.7" x2="79.1" y2="80.3" stroke-width="9"></line>
    <circle cx="30" cy="28" r="12" stroke-width="8"></circle><circle cx="90" cy="28" r="12" stroke-width="8"></circle>
    <circle cx="30" cy="92" r="12" stroke-width="8"></circle><circle cx="90" cy="92" r="12" stroke-width="8"></circle>
  </g>
  <text x="48" y="38" fill="#0B1530" font-family="&#39;Space Grotesk&#39;,sans-serif" font-size="15" font-weight="700" letter-spacing="1.5">NEXORA</text>

  
  <text x="24" y="118" fill="#2563EB" font-size="12" font-weight="600" letter-spacing="2">PARA QUIÉN</text>
  <text x="24" y="152" fill="#0B1530" font-family="&#39;Space Grotesk&#39;,sans-serif" font-size="28" font-weight="700" letter-spacing="-0.5">Negocios como el tuyo</text>
  <text x="24" y="180" fill="#5B6470" font-size="15">Si atiendes clientes, tenemos algo para ti.</text>

  
  
  <g>
    <rect x="24" y="208" width="165" height="150" rx="16" fill="#FFFFFF" stroke="#E2E8F0"></rect>
    <rect x="44" y="228" width="44" height="44" rx="12" fill="#EFF4FF"></rect>
    <g transform="translate(54,238)" stroke="#2563EB" stroke-width="2" fill="none" stroke-linecap="round" stroke-linejoin="round"><path d="M4 20V8l8-4 8 4v12"></path><path d="M4 14h16"></path></g>
    <text x="44" y="312" fill="#0B1530" font-family="&#39;Space Grotesk&#39;,sans-serif" font-size="17" font-weight="600">Barberías</text>
    <text x="44" y="334" fill="#5B6470" font-size="13">y salones</text>

    <rect x="201" y="208" width="165" height="150" rx="16" fill="#FFFFFF" stroke="#E2E8F0"></rect>
    <rect x="221" y="228" width="44" height="44" rx="12" fill="#EFF4FF"></rect>
    <g transform="translate(231,238)" stroke="#2563EB" stroke-width="2" fill="none" stroke-linecap="round" stroke-linejoin="round"><path d="M5 3v6a4 4 0 0 0 8 0V3"></path><line x1="9" y1="13" x2="9" y2="21"></line><path d="M18 3c-2 1-2 6 0 8v10"></path></g>
    <text x="221" y="312" fill="#0B1530" font-family="&#39;Space Grotesk&#39;,sans-serif" font-size="17" font-weight="600">Restaurantes</text>
    <text x="221" y="334" fill="#5B6470" font-size="13">y cafés</text>
  </g>
  
  <g>
    <rect x="24" y="374" width="165" height="150" rx="16" fill="#FFFFFF" stroke="#E2E8F0"></rect>
    <rect x="44" y="394" width="44" height="44" rx="12" fill="#EFF4FF"></rect>
    <g transform="translate(54,404)" stroke="#2563EB" stroke-width="2" fill="none" stroke-linecap="round" stroke-linejoin="round"><path d="M12 4v16M4 12h16" stroke-width="2.4"></path></g>
    <text x="44" y="478" fill="#0B1530" font-family="&#39;Space Grotesk&#39;,sans-serif" font-size="17" font-weight="600">Clínicas</text>
    <text x="44" y="500" fill="#5B6470" font-size="13">y consultorios</text>

    <rect x="201" y="374" width="165" height="150" rx="16" fill="#FFFFFF" stroke="#E2E8F0"></rect>
    <rect x="221" y="394" width="44" height="44" rx="12" fill="#EFF4FF"></rect>
    <g transform="translate(231,404)" stroke="#2563EB" stroke-width="2" fill="none" stroke-linecap="round" stroke-linejoin="round"><path d="M2 9h3v6H2zM19 9h3v6h-3zM5 12h14M7 7v10M17 7v10"></path></g>
    <text x="221" y="478" fill="#0B1530" font-family="&#39;Space Grotesk&#39;,sans-serif" font-size="17" font-weight="600">Gimnasios</text>
    <text x="221" y="500" fill="#5B6470" font-size="13">y estudios</text>
  </g>
  
  <g>
    <rect x="24" y="540" width="165" height="150" rx="16" fill="#FFFFFF" stroke="#E2E8F0"></rect>
    <rect x="44" y="560" width="44" height="44" rx="12" fill="#EFF4FF"></rect>
    <g transform="translate(54,570)" stroke="#2563EB" stroke-width="2" fill="none" stroke-linecap="round" stroke-linejoin="round"><path d="M3 7h18l-1.5 13H4.5z"></path><path d="M8 7a4 4 0 0 1 8 0"></path></g>
    <text x="44" y="644" fill="#0B1530" font-family="&#39;Space Grotesk&#39;,sans-serif" font-size="17" font-weight="600">Tiendas</text>
    <text x="44" y="666" fill="#5B6470" font-size="13">y comercios</text>

    <rect x="201" y="540" width="165" height="150" rx="16" fill="#0B1530"></rect>
    <rect x="221" y="560" width="44" height="44" rx="12" fill="#111E3D"></rect>
    <g transform="translate(231,570)" stroke="#22D3EE" stroke-width="2" fill="none" stroke-linecap="round" stroke-linejoin="round"><circle cx="12" cy="12" r="9"></circle><ellipse cx="12" cy="12" rx="4" ry="9"></ellipse><line x1="3" y1="9" x2="21" y2="9"></line><line x1="3" y1="15" x2="21" y2="15"></line></g>
    <text x="221" y="644" fill="#F8FAFC" font-family="&#39;Space Grotesk&#39;,sans-serif" font-size="17" font-weight="600">Freelancers</text>
    <text x="221" y="666" fill="#94A3B8" font-size="13">y empresas (intl.)</text>
  </g>

  <text x="195" y="752" fill="#5B6470" font-size="14" text-anchor="middle">¿No ves tu rubro?</text>
  <text x="195" y="776" fill="#2563EB" font-size="15" font-weight="600" text-anchor="middle">Escríbenos igual →</text>
</svg>