<svg width="390" height="844" viewBox="0 0 390 844" fill="none" xmlns="http://www.w3.org/2000/svg" font-family="&#39;Inter&#39;,sans-serif" aria-label="07 Pricing">
  <rect width="390" height="844" fill="#F8FAFC"></rect>

  
  <rect width="390" height="64" fill="#FFFFFF"></rect>
  <line x1="0" y1="64" x2="390" y2="64" stroke="#E2E8F0"></line>
  <g transform="translate(24,21) scale(0.18)" stroke="#2563EB" fill="none" stroke-linecap="round">
    <line x1="30" y1="44" x2="30" y2="76" stroke-width="9"></line><line x1="90" y1="44" x2="90" y2="76" stroke-width="9"></line>
    <line x1="40.9" y1="39.7" x2="79.1" y2="80.3" stroke-width="9"></line>
    <circle cx="30" cy="28" r="12" stroke-width="8"></circle><circle cx="90" cy="28" r="12" stroke-width="8"></circle>
    <circle cx="30" cy="92" r="12" stroke-width="8"></circle><circle cx="90" cy="92" r="12" stroke-width="8"></circle>
  </g>
  <text x="48" y="38" fill="#0B1530" font-family="&#39;Space Grotesk&#39;,sans-serif" font-size="15" font-weight="700" letter-spacing="1.5">NEXORA</text>
  <rect x="300" y="18" width="66" height="28" rx="14" fill="#F1F5F9"></rect>
  <text x="320" y="36" fill="#2563EB" font-size="12" font-weight="600" text-anchor="middle">ES</text>
  <text x="350" y="36" fill="#94A3B8" font-size="12" font-weight="600" text-anchor="middle">EN</text>

  
  <text x="24" y="110" fill="#2563EB" font-size="12" font-weight="600" letter-spacing="2">PLANES</text>
  <text x="24" y="142" fill="#0B1530" font-family="&#39;Space Grotesk&#39;,sans-serif" font-size="28" font-weight="700" letter-spacing="-0.5">Precios claros</text>

  
  <rect x="24" y="160" width="342" height="40" rx="10" fill="#EFF4FF"></rect>
  <circle cx="44" cy="180" r="7" fill="none" stroke="#2563EB" stroke-width="1.6"></circle>
  <text x="44" y="184" fill="#2563EB" font-size="10" font-weight="700" text-anchor="middle">i</text>
  <text x="58" y="177" fill="#1D4FD7" font-size="12" font-weight="600">Mostrando precios Ecuador (ES).</text>
  <text x="58" y="192" fill="#5B6470" font-size="11.5">Cambia a EN para tarifas internacionales.</text>

  
  <rect x="24" y="214" width="342" height="150" rx="16" fill="#FFFFFF" stroke="#E2E8F0"></rect>
  <text x="44" y="248" fill="#0B1530" font-family="&#39;Space Grotesk&#39;,sans-serif" font-size="18" font-weight="600">Esencial</text>
  <text x="346" y="250" fill="#0B1530" font-family="&#39;Space Grotesk&#39;,sans-serif" font-size="24" font-weight="700" text-anchor="end">$249</text>
  <text x="44" y="270" fill="#5B6470" font-size="13">Presencia profesional para empezar.</text>
  <g font-size="13" fill="#334155"><text x="58" y="296">Sitio de una página, optimizado</text><text x="58" y="318">Formulario + botón de WhatsApp</text><text x="58" y="340">Dominio y publicación incluidos</text></g>
  <g stroke="#2563EB" stroke-width="2" fill="none" stroke-linecap="round" stroke-linejoin="round"><path d="M44 290l3 3 5-5"></path><path d="M44 312l3 3 5-5"></path><path d="M44 334l3 3 5-5"></path></g>

  
  <rect x="24" y="378" width="342" height="166" rx="16" fill="#FFFFFF" stroke="#2563EB" stroke-width="2"></rect>
  <rect x="270" y="366" width="80" height="24" rx="12" fill="#2563EB"></rect>
  <text x="310" y="382" fill="#FFFFFF" font-size="11" font-weight="700" letter-spacing="0.5" text-anchor="middle">POPULAR</text>
  <text x="44" y="416" fill="#0B1530" font-family="&#39;Space Grotesk&#39;,sans-serif" font-size="18" font-weight="600">Pro</text>
  <text x="346" y="418" fill="#0B1530" font-family="&#39;Space Grotesk&#39;,sans-serif" font-size="24" font-weight="700" text-anchor="end">$549</text>
  <text x="44" y="438" fill="#5B6470" font-size="13">Sitio + un sistema para operar.</text>
  <g font-size="13" fill="#334155"><text x="58" y="464">Todo lo de Esencial</text><text x="58" y="486">Reservas, menú QR o catálogo</text><text x="58" y="508">Panel para administrar tu contenido</text></g>
  <g stroke="#2563EB" stroke-width="2" fill="none" stroke-linecap="round" stroke-linejoin="round"><path d="M44 458l3 3 5-5"></path><path d="M44 480l3 3 5-5"></path><path d="M44 502l3 3 5-5"></path></g>
  <text x="44" y="532" fill="#2563EB" font-size="13" font-weight="600">Elegir Pro →</text>

  
  <rect x="24" y="558" width="342" height="150" rx="16" fill="#0B1530"></rect>
  <text x="44" y="592" fill="#F8FAFC" font-family="&#39;Space Grotesk&#39;,sans-serif" font-size="18" font-weight="600">Premium</text>
  <text x="346" y="594" fill="#22D3EE" font-family="&#39;Space Grotesk&#39;,sans-serif" font-size="22" font-weight="700" text-anchor="end">Desde $1,200</text>
  <text x="44" y="614" fill="#94A3B8" font-size="13">App o sistema a medida, end-to-end.</text>
  <g font-size="13" fill="#CBD5E1"><text x="58" y="640">Funcionalidad personalizada</text><text x="58" y="662">Integraciones y roles de usuario</text><text x="58" y="684">Soporte y evolución continua</text></g>
  <g stroke="#22D3EE" stroke-width="2" fill="none" stroke-linecap="round" stroke-linejoin="round"><path d="M44 634l3 3 5-5"></path><path d="M44 656l3 3 5-5"></path><path d="M44 678l3 3 5-5"></path></g>

  <text x="195" y="752" fill="#5B6470" font-size="12" text-anchor="middle">Todo se cierra con propuesta por escrito antes de empezar.</text>
  <rect x="24" y="772" width="342" height="48" rx="14" fill="#2563EB"></rect>
  <text x="195" y="801" fill="#FFFFFF" font-size="15" font-weight="600" text-anchor="middle">Pedir cotización por WhatsApp</text>
</svg>