<svg width="460" height="800" viewBox="0 0 460 800" fill="none" xmlns="http://www.w3.org/2000/svg" font-family="&#39;Inter&#39;,sans-serif" aria-label="Instagram profile mockup">
  <rect width="460" height="800" fill="#FFFFFF"></rect>
  
  <text x="28" y="36" fill="#0B1530" font-size="13" font-weight="600">9:41</text>
  <g fill="#0B1530"><rect x="404" y="28" width="18" height="10" rx="2"></rect><circle cx="430" cy="33" r="3"></circle></g>
  
  <text x="28" y="76" fill="#0B1530" font-family="&#39;Space Grotesk&#39;,sans-serif" font-size="19" font-weight="700">nexora.studio</text>
  <g stroke="#0B1530" stroke-width="2" stroke-linecap="round"><line x1="412" y1="64" x2="432" y2="64"></line><line x1="412" y1="71" x2="432" y2="71"></line><line x1="412" y1="78" x2="432" y2="78"></line></g>

  
  <circle cx="74" cy="148" r="42" fill="#0B1530"></circle>
  <g transform="translate(45,119) scale(0.32)" stroke="#2563EB" fill="none" stroke-linecap="round">
    <line x1="30" y1="44" x2="30" y2="76" stroke-width="9"></line><line x1="90" y1="44" x2="90" y2="76" stroke-width="9"></line>
    <line x1="40.9" y1="39.7" x2="79.1" y2="80.3" stroke-width="9"></line>
    <circle cx="30" cy="28" r="12" stroke-width="8"></circle><circle cx="90" cy="28" r="12" stroke-width="8"></circle>
    <circle cx="30" cy="92" r="12" stroke-width="8"></circle><circle cx="90" cy="92" r="12" stroke-width="8"></circle>
  </g>
  
  <g text-anchor="middle">
    <text x="190" y="135" fill="#0B1530" font-size="18" font-weight="700" font-family="&#39;Space Grotesk&#39;,sans-serif">48</text><text x="190" y="158" fill="#5B6470" font-size="12">posts</text>
    <text x="285" y="135" fill="#0B1530" font-size="18" font-weight="700" font-family="&#39;Space Grotesk&#39;,sans-serif">2.1k</text><text x="285" y="158" fill="#5B6470" font-size="12">seguidores</text>
    <text x="385" y="135" fill="#0B1530" font-size="18" font-weight="700" font-family="&#39;Space Grotesk&#39;,sans-serif">12</text><text x="385" y="158" fill="#5B6470" font-size="12">siguiendo</text>
  </g>
  
  <text x="28" y="220" fill="#0B1530" font-size="14" font-weight="700">Nexora · Software Studio</text>
  <text x="28" y="244" fill="#5B6470" font-size="13">Sitios, sistemas y apps a medida.</text>
  <text x="28" y="264" fill="#5B6470" font-size="13">Productos propios: Faktova · Turnia.</text>
  <text x="28" y="284" fill="#2563EB" font-size="13" font-weight="600">📍 Guayaquil · wa.me/Nexora</text>
  
  <rect x="28" y="304" width="195" height="34" rx="9" fill="#2563EB"></rect><text x="125" y="326" fill="#fff" font-size="13" font-weight="600" text-anchor="middle">Mensaje</text>
  <rect x="237" y="304" width="195" height="34" rx="9" fill="#F1F5F9"></rect><text x="334" y="326" fill="#0B1530" font-size="13" font-weight="600" text-anchor="middle">Contacto</text>

  
  <g>
    <circle cx="64" cy="386" r="26" fill="#F8FAFC" stroke="#E2E8F0"></circle><text x="64" y="392" font-size="20" text-anchor="middle">🌐</text><text x="64" y="430" fill="#5B6470" font-size="11" text-anchor="middle">Web</text>
    <circle cx="140" cy="386" r="26" fill="#F8FAFC" stroke="#E2E8F0"></circle><text x="140" y="392" font-size="20" text-anchor="middle">📅</text><text x="140" y="430" fill="#5B6470" font-size="11" text-anchor="middle">Reservas</text>
    <circle cx="216" cy="386" r="26" fill="#F8FAFC" stroke="#E2E8F0"></circle><text x="216" y="392" font-size="20" text-anchor="middle">🍽️</text><text x="216" y="430" fill="#5B6470" font-size="11" text-anchor="middle">Menú QR</text>
    <circle cx="292" cy="386" r="26" fill="#F8FAFC" stroke="#E2E8F0"></circle><text x="292" y="392" font-size="20" text-anchor="middle">⚙️</text><text x="292" y="430" fill="#5B6470" font-size="11" text-anchor="middle">Demos</text>
  </g>
  <line x1="0" y1="458" x2="460" y2="458" stroke="#E2E8F0"></line>

  
  <g>
    
    <rect x="2" y="462" width="151" height="151" fill="#0B1530"></rect>
    <g transform="translate(48,508) scale(0.5)" stroke="#2563EB" fill="none" stroke-linecap="round"><line x1="30" y1="44" x2="30" y2="76" stroke-width="9"></line><line x1="90" y1="44" x2="90" y2="76" stroke-width="9"></line><line x1="40.9" y1="39.7" x2="79.1" y2="80.3" stroke-width="9"></line><circle cx="30" cy="28" r="12" stroke-width="8"></circle><circle cx="90" cy="28" r="12" stroke-width="8"></circle><circle cx="30" cy="92" r="12" stroke-width="8"></circle><circle cx="90" cy="92" r="12" stroke-width="8"></circle></g>
    <rect x="155" y="462" width="151" height="151" fill="#F8FAFC"></rect>
    <rect x="178" y="500" width="105" height="14" rx="4" fill="#CBD5E1"></rect><rect x="178" y="524" width="80" height="14" rx="4" fill="#2563EB"></rect><rect x="178" y="556" width="105" height="10" rx="4" fill="#E2E8F0"></rect>
    <rect x="308" y="462" width="151" height="151" fill="#2563EB"></rect>
    <text x="383" y="548" fill="#fff" font-size="34" font-weight="700" text-anchor="middle" font-family="&#39;Space Grotesk&#39;,sans-serif">QR</text>
    
    <rect x="2" y="615" width="151" height="151" fill="#F8FAFC"></rect>
    <rect x="25" y="650" width="105" height="14" rx="4" fill="#0B1530"></rect><rect x="25" y="674" width="80" height="14" rx="4" fill="#CBD5E1"></rect><rect x="25" y="710" width="60" height="24" rx="8" fill="#2563EB"></rect>
    <rect x="155" y="615" width="151" height="151" fill="#111E3D"></rect>
    <g transform="translate(205,665)" stroke="#22D3EE" stroke-width="4" fill="none" stroke-linecap="round" stroke-linejoin="round"><path d="M14 6l-14 14 14 14"></path><path d="M36 6l14 14-14 14" transform="translate(-10,0)"></path></g>
    <rect x="308" y="615" width="151" height="151" fill="#F8FAFC"></rect>
    <circle cx="383" cy="678" r="26" fill="#EFF4FF"></circle><path d="M371 678l8 8 16-16" stroke="#2563EB" stroke-width="4" fill="none" stroke-linecap="round" stroke-linejoin="round"></path><rect x="343" y="722" width="80" height="12" rx="4" fill="#CBD5E1"></rect>
  </g>
</svg>