<svg width="1080" height="1080" viewBox="0 0 1080 1080" fill="none" xmlns="http://www.w3.org/2000/svg" font-family="&#39;Inter&#39;,sans-serif" aria-label="Instagram post — value prop">
  <rect width="1080" height="1080" fill="#0B1530"></rect>
  
  <g stroke="#2563EB" stroke-width="2" opacity="0.4" fill="none">
    <line x1="760" y1="160" x2="940" y2="240"></line><line x1="940" y1="240" x2="860" y2="430"></line>
    <line x1="760" y1="160" x2="640" y2="300"></line><line x1="640" y1="300" x2="860" y2="430"></line>
  </g>
  <g fill="#22D3EE" opacity="0.55"><circle cx="760" cy="160" r="7"></circle><circle cx="940" cy="240" r="7"></circle><circle cx="860" cy="430" r="7"></circle><circle cx="640" cy="300" r="7"></circle></g>

  
  <g transform="translate(96,96) scale(0.62)" stroke="#2563EB" fill="none" stroke-linecap="round">
    <line x1="30" y1="44" x2="30" y2="76" stroke-width="9"></line><line x1="90" y1="44" x2="90" y2="76" stroke-width="9"></line>
    <line x1="40.9" y1="39.7" x2="79.1" y2="80.3" stroke-width="9"></line>
    <circle cx="30" cy="28" r="12" stroke-width="8"></circle><circle cx="90" cy="28" r="12" stroke-width="8"></circle>
    <circle cx="30" cy="92" r="12" stroke-width="8"></circle><circle cx="90" cy="92" r="12" stroke-width="8"></circle>
  </g>
  <text x="178" y="170" fill="#F8FAFC" font-family="&#39;Space Grotesk&#39;,sans-serif" font-size="40" font-weight="700" letter-spacing="6">NEXORA</text>

  <text x="96" y="470" fill="#22D3EE" font-size="28" font-weight="600" letter-spacing="4">ESTUDIO DE SOFTWARE</text>
  <g fill="#F8FAFC" font-family="&#39;Space Grotesk&#39;,sans-serif" font-size="86" font-weight="700" letter-spacing="-2">
    <text x="92" y="580">Tu negocio</text>
    <text x="92" y="678">merece mejor</text>
    <text x="92" y="776"><tspan fill="#2563EB">software</tspan>.</text>
  </g>
  <text x="96" y="858" fill="#94A3B8" font-size="34">Sitios · sistemas · apps a medida</text>

  <line x1="96" y1="930" x2="984" y2="930" stroke="#1B294F" stroke-width="2"></line>
  <text x="96" y="996" fill="#CBD5E1" font-size="30" font-weight="600">Guayaquil, Ecuador</text>
  <text x="984" y="996" fill="#2563EB" font-size="30" font-weight="600" text-anchor="end">@nexora.studio</text>
</svg>