<svg width="540" height="640" viewBox="0 0 540 640" fill="none" xmlns="http://www.w3.org/2000/svg" font-family="&#39;Inter&#39;,sans-serif" aria-label="LinkedIn company page mockup">
  <rect width="540" height="640" fill="#F1F5F9"></rect>
  <rect x="20" y="20" width="500" height="600" rx="14" fill="#FFFFFF" stroke="#E2E8F0"></rect>

  
  <clipPath id="liClip"><rect x="20" y="20" width="500" height="130" rx="14"></rect></clipPath>
  <g clip-path="url(#liClip)">
    <rect x="20" y="20" width="500" height="130" fill="#0B1530"></rect>
    <g stroke="#2563EB" stroke-width="1.5" opacity="0.5" fill="none">
      <line x1="360" y1="48" x2="440" y2="34"></line><line x1="440" y1="34" x2="500" y2="92"></line><line x1="360" y1="48" x2="392" y2="120"></line>
    </g>
    <g fill="#22D3EE" opacity="0.6"><circle cx="360" cy="48" r="4"></circle><circle cx="440" cy="34" r="4"></circle><circle cx="500" cy="92" r="4"></circle><circle cx="392" cy="120" r="4"></circle></g>
  </g>

  
  <rect x="44" y="116" width="92" height="92" rx="16" fill="#0B1530" stroke="#FFFFFF" stroke-width="4"></rect>
  <g transform="translate(56,128) scale(0.56)" stroke="#2563EB" fill="none" stroke-linecap="round">
    <line x1="30" y1="44" x2="30" y2="76" stroke-width="9"></line><line x1="90" y1="44" x2="90" y2="76" stroke-width="9"></line>
    <line x1="40.9" y1="39.7" x2="79.1" y2="80.3" stroke-width="9"></line>
    <circle cx="30" cy="28" r="12" stroke-width="8"></circle><circle cx="90" cy="28" r="12" stroke-width="8"></circle>
    <circle cx="30" cy="92" r="12" stroke-width="8"></circle><circle cx="90" cy="92" r="12" stroke-width="8"></circle>
  </g>

  <text x="44" y="248" fill="#0B1530" font-family="&#39;Space Grotesk&#39;,sans-serif" font-size="24" font-weight="700">Nexora Software</text>
  <text x="44" y="276" fill="#5B6470" font-size="14">Desarrollo de software · Guayaquil, Ecuador</text>
  <text x="44" y="300" fill="#5B6470" font-size="14">Sitios, sistemas y aplicaciones a medida.</text>
  <text x="44" y="328" fill="#94A3B8" font-size="13">2.140 seguidores · 2–10 empleados</text>

  <rect x="44" y="346" width="120" height="38" rx="19" fill="#2563EB"></rect>
  <text x="104" y="370" fill="#fff" font-size="14" font-weight="600" text-anchor="middle">+ Seguir</text>
  <rect x="176" y="346" width="120" height="38" rx="19" fill="none" stroke="#2563EB"></rect>
  <text x="236" y="370" fill="#2563EB" font-size="14" font-weight="600" text-anchor="middle">Mensaje</text>

  <line x1="44" y1="412" x2="496" y2="412" stroke="#E2E8F0"></line>
  <text x="44" y="446" fill="#0B1530" font-size="15" font-weight="700" font-family="&#39;Space Grotesk&#39;,sans-serif">Información</text>
  <g fill="#5B6470" font-size="13.5">
    <text x="44" y="476">Estudio de software faceless. Construimos para</text>
    <text x="44" y="498">negocios y clientes internacionales, y operamos</text>
    <text x="44" y="520">nuestros propios productos: Faktova y Turnia.</text>
  </g>

  
  <rect x="44" y="546" width="452" height="58" rx="12" fill="#F8FAFC" stroke="#E2E8F0"></rect>
  <rect x="60" y="560" width="30" height="30" rx="8" fill="#2563EB"></rect>
  <text x="104" y="572" fill="#0B1530" font-size="13" font-weight="600">Nuevo demo: reservas para barberías</text>
  <text x="104" y="592" fill="#94A3B8" font-size="12">Nexora Software · 2 d</text>
</svg>