<svg width="24" height="24" viewBox="0 0 24 24" fill="none" stroke="currentColor" stroke-width="2" stroke-linecap="round" stroke-linejoin="round" style="color:#0B1530" xmlns="http://www.w3.org/2000/svg" aria-label="WhatsApp">
  <path d="M4 20l1.3-3.9A8 8 0 1 1 8.1 18.7L4 20z"></path>
  <path d="M9 8.5c-.3 0-.6.1-.8.4-.3.3-.9.9-.9 2.1s.9 2.4 1 2.6c.1.2 1.7 2.8 4.3 3.8 2.1.8 2.6.7 3 .6.5-.1 1.4-.6 1.6-1.2.2-.6.2-1 .1-1.2 0-.1-.3-.2-.6-.4l-1.5-.7c-.2-.1-.4-.1-.6.1l-.7.8c-.1.2-.3.2-.5.1-.7-.3-1.4-.7-2-1.4-.5-.6-.8-1.1-1-1.4-.1-.2 0-.4.1-.5l.5-.6c.1-.2.1-.3 0-.5l-.6-1.5c-.2-.5-.4-.5-.6-.5z" fill="currentColor" stroke="none"></path>
</svg>